<?xml version="1.0" encoding="utf-8"?>
<!-- Generator: Adobe Illustrator 15.0.2, SVG Export Plug-In . SVG Version: 6.00 Build 0)  -->
<!DOCTYPE svg PUBLIC "-//W3C//DTD SVG 1.1//EN" "http://www.w3.org/Graphics/SVG/1.1/DTD/svg11.dtd">
<svg version="1.1" id="Layer_1" xmlns="http://www.w3.org/2000/svg" xmlns:xlink="http://www.w3.org/1999/xlink" x="0px" y="0px"
	 width="29px" height="592.168px" viewBox="0 0 29 592.168" enable-background="new 0 0 29 592.168" xml:space="preserve">
<circle fill="#2C5993" cx="14.5" cy="14.5" r="14.5"/>
<polygon fill="#2C5993" points="3.104,31.198 3.104,31.198 5.636,24.209 9.49,27.395 "/>
<g>
	<path fill="#FFFFFF" d="M8.463,15.463v-3.634h3.13V9.152c0-1.522,0.425-2.703,1.277-3.542c0.851-0.839,1.984-1.258,3.399-1.258
		c1.203,0,2.137,0.049,2.799,0.147V7.74h-1.926c-0.705,0-1.181,0.147-1.426,0.442c-0.244,0.295-0.367,0.737-0.367,1.326v2.32h3.599
		l-0.479,3.634H15.35v9.318h-3.757v-9.318L8.463,15.463L8.463,15.463z"/>
</g>
<circle fill="#1DA8D3" cx="14.5" cy="95.5" r="14.5"/>
<polygon fill="#1DA8D3" points="3.104,112.198 3.104,112.198 5.637,105.21 9.49,108.395 "/>
<g>
	<path fill="#FFFFFF" d="M4.837,102.33c0.287,0.033,0.606,0.049,0.958,0.049c1.842,0,3.482-0.565,4.923-1.694
		c-0.859-0.016-1.629-0.28-2.308-0.792c-0.68-0.511-1.146-1.164-1.399-1.958c0.27,0.041,0.52,0.062,0.749,0.062
		c0.352,0,0.7-0.045,1.043-0.135c-0.917-0.188-1.676-0.645-2.277-1.369c-0.602-0.725-0.902-1.565-0.902-2.523v-0.05
		c0.557,0.312,1.154,0.479,1.792,0.503c-0.54-0.36-0.97-0.831-1.289-1.412C5.808,92.43,5.648,91.8,5.648,91.12
		c0-0.72,0.18-1.387,0.54-2.001c0.99,1.219,2.195,2.195,3.616,2.928c1.419,0.732,2.94,1.14,4.561,1.222
		c-0.065-0.311-0.098-0.614-0.098-0.909c0-1.097,0.387-2.032,1.16-2.805c0.773-0.773,1.708-1.16,2.806-1.16
		c1.146,0,2.111,0.417,2.896,1.252c0.893-0.172,1.73-0.491,2.518-0.958c-0.304,0.941-0.885,1.669-1.744,2.185
		c0.763-0.082,1.522-0.287,2.283-0.614c-0.547,0.802-1.211,1.485-1.987,2.05c0.008,0.115,0.012,0.287,0.012,0.516
		c0,1.064-0.153,2.126-0.466,3.186c-0.312,1.06-0.784,2.077-1.418,3.051c-0.635,0.974-1.391,1.835-2.266,2.584
		c-0.877,0.749-1.933,1.346-3.167,1.792s-2.558,0.669-3.965,0.669C8.708,104.11,6.679,103.517,4.837,102.33z"/>
</g>
<circle fill="#DF1F26" cx="14.5" cy="176.636" r="14.5"/>
<polygon fill="#DF1F26" points="3.104,193.333 3.104,193.333 5.637,186.345 9.49,189.53 "/>
<g>
	<path fill="#FFFFFF" d="M5.308,178.05c-0.007-0.382-0.011-0.912-0.011-1.59c0-0.678,0.003-1.209,0.011-1.59
		c0.007-0.382,0.037-0.864,0.09-1.447c0.053-0.583,0.133-1.104,0.239-1.564c0.113-0.516,0.357-0.951,0.731-1.304
		s0.813-0.558,1.315-0.615c1.569-0.177,3.94-0.265,7.114-0.265s5.545,0.088,7.114,0.265c0.502,0.057,0.942,0.261,1.319,0.615
		c0.379,0.354,0.625,0.788,0.736,1.304c0.1,0.459,0.176,0.98,0.229,1.564c0.054,0.583,0.084,1.065,0.091,1.447
		c0.007,0.381,0.011,0.912,0.011,1.59c0,0.678-0.003,1.208-0.011,1.59c-0.007,0.382-0.037,0.864-0.091,1.448
		c-0.053,0.582-0.133,1.104-0.238,1.563c-0.113,0.517-0.357,0.951-0.73,1.304c-0.375,0.354-0.812,0.559-1.314,0.615
		c-1.569,0.178-3.939,0.266-7.114,0.266c-3.174,0-5.545-0.088-7.114-0.266c-0.502-0.057-0.942-0.262-1.32-0.615
		c-0.378-0.354-0.624-0.787-0.737-1.304c-0.099-0.459-0.175-0.981-0.228-1.563C5.345,178.915,5.314,178.432,5.308,178.05z
		 M12.083,179.853c0,0.27,0.117,0.467,0.35,0.594c0.113,0.057,0.223,0.086,0.329,0.086c0.141,0,0.261-0.035,0.36-0.107l5.429-3.392
		c0.213-0.12,0.318-0.311,0.318-0.572c0-0.261-0.105-0.452-0.318-0.573l-5.429-3.393c-0.219-0.142-0.449-0.148-0.689-0.021
		c-0.233,0.127-0.35,0.325-0.35,0.594V179.853z"/>
</g>
<circle fill="#060606" cx="14.5" cy="257.574" r="14.5"/>
<polygon fill="#060606" points="3.104,274.271 3.104,274.271 5.637,267.283 9.49,270.468 "/>
<g>
	<path fill="#FFFFFF" d="M6.296,264.145v-12.746c0-0.603,0.216-1.119,0.647-1.551c0.431-0.433,0.949-0.646,1.551-0.646H21.24
		c0.603,0,1.119,0.217,1.552,0.646c0.431,0.434,0.647,0.948,0.647,1.551v12.746c0,0.604-0.217,1.119-0.647,1.551
		c-0.433,0.434-0.949,0.647-1.552,0.647H8.495c-0.603,0-1.12-0.217-1.551-0.647C6.512,265.264,6.296,264.748,6.296,264.145z
		 M8.205,263.688c0,0.192,0.065,0.354,0.195,0.483c0.13,0.132,0.292,0.195,0.485,0.195h11.932c0.187,0,0.347-0.063,0.479-0.195
		c0.134-0.129,0.201-0.291,0.201-0.483v-7.232H19.99c0.148,0.469,0.224,0.957,0.224,1.463c0,0.938-0.237,1.803-0.714,2.596
		s-1.124,1.42-1.941,1.881c-0.82,0.461-1.711,0.691-2.68,0.691c-1.466,0-2.72-0.504-3.761-1.514
		c-1.042-1.008-1.562-2.227-1.562-3.654c0-0.506,0.074-0.994,0.223-1.463H8.205V263.688z M12.451,255.376
		c-0.674,0.651-1.01,1.438-1.01,2.36c0,0.923,0.336,1.709,1.01,2.361c0.673,0.648,1.482,0.978,2.427,0.978
		c0.952,0,1.765-0.326,2.438-0.978c0.672-0.652,1.01-1.438,1.01-2.361c0-0.922-0.338-1.709-1.01-2.36
		c-0.674-0.649-1.486-0.978-2.438-0.978C13.934,254.4,13.125,254.727,12.451,255.376z M18.016,253.721
		c0,0.215,0.073,0.397,0.223,0.547c0.148,0.147,0.33,0.225,0.548,0.225h1.94c0.217,0,0.398-0.074,0.547-0.225
		c0.149-0.148,0.225-0.332,0.225-0.547v-1.843c0-0.209-0.074-0.39-0.225-0.541c-0.147-0.151-0.33-0.229-0.547-0.229h-1.94
		c-0.218,0-0.397,0.076-0.548,0.229c-0.148,0.151-0.223,0.332-0.223,0.541V253.721z"/>
</g>
<circle fill="#D34935" cx="14.5" cy="338.574" r="14.5"/>
<polygon fill="#D34935" points="3.104,355.271 3.104,355.271 5.637,348.283 9.49,351.468 "/>
<g>
	<path fill="#FFFFFF" d="M6.653,343.882c0-0.603,0.166-1.159,0.497-1.674s0.771-0.94,1.322-1.283
		c0.975-0.608,2.478-0.981,4.509-1.114c-0.238-0.312-0.415-0.588-0.53-0.826c-0.116-0.238-0.173-0.51-0.173-0.814
		c0-0.27,0.078-0.584,0.234-0.947c-0.342,0.029-0.595,0.045-0.759,0.045c-1.101,0-2.029-0.358-2.785-1.078
		c-0.756-0.717-1.133-1.627-1.133-2.729c0-0.609,0.134-1.201,0.402-1.775c0.268-0.571,0.636-1.061,1.105-1.461
		c0.573-0.492,1.251-0.854,2.037-1.094c0.786-0.238,1.594-0.357,2.428-0.357h4.666l-1.541,0.982h-1.461
		c0.551,0.469,0.967,0.963,1.25,1.484c0.282,0.521,0.424,1.113,0.424,1.783c0,0.537-0.092,1.02-0.272,1.445
		c-0.185,0.428-0.401,0.772-0.659,1.038c-0.256,0.265-0.515,0.507-0.773,0.726c-0.263,0.221-0.482,0.449-0.666,0.688
		s-0.273,0.484-0.273,0.736c0,0.268,0.119,0.529,0.357,0.787c0.24,0.256,0.526,0.51,0.867,0.76c0.338,0.248,0.674,0.521,1.01,0.818
		c0.334,0.299,0.621,0.686,0.857,1.16c0.238,0.479,0.357,1.006,0.357,1.586c0,0.67-0.18,1.312-0.536,1.932
		c-0.536,0.906-1.32,1.574-2.354,2.004c-1.036,0.428-2.144,0.643-3.327,0.643c-0.982,0-1.899-0.154-2.751-0.465
		c-0.852-0.309-1.49-0.818-1.914-1.533C6.791,344.898,6.653,344.412,6.653,343.882z M8.729,343.369c0,0.521,0.13,0.98,0.391,1.379
		c0.26,0.396,0.601,0.707,1.021,0.926c0.42,0.221,0.863,0.385,1.328,0.492c0.465,0.107,0.939,0.162,1.423,0.162
		c0.432,0,0.847-0.051,1.245-0.146c0.398-0.098,0.766-0.24,1.105-0.436c0.338-0.193,0.609-0.467,0.814-0.814
		c0.202-0.35,0.307-0.756,0.307-1.217c0-0.188-0.026-0.367-0.078-0.547c-0.053-0.18-0.105-0.334-0.162-0.469
		s-0.156-0.289-0.303-0.465c-0.146-0.174-0.254-0.305-0.328-0.392c-0.074-0.084-0.219-0.213-0.43-0.385
		c-0.212-0.17-0.35-0.278-0.409-0.322c-0.06-0.045-0.214-0.155-0.463-0.336c-0.249-0.178-0.385-0.274-0.407-0.289
		c-0.119-0.016-0.298-0.022-0.536-0.022c-0.395,0-0.785,0.025-1.172,0.078c-0.387,0.053-0.787,0.146-1.2,0.279
		c-0.413,0.135-0.774,0.305-1.083,0.514s-0.564,0.483-0.765,0.832C8.83,342.539,8.729,342.932,8.729,343.369z M9.912,332.275
		c0,0.344,0.037,0.705,0.111,1.088c0.074,0.385,0.191,0.768,0.352,1.15c0.16,0.383,0.354,0.729,0.581,1.03
		c0.227,0.306,0.506,0.556,0.837,0.748s0.69,0.291,1.077,0.291c0.283,0,0.573-0.062,0.871-0.187
		c0.297-0.123,0.543-0.283,0.736-0.483c0.395-0.425,0.591-1.017,0.591-1.774c0-0.433-0.062-0.896-0.189-1.396
		c-0.126-0.498-0.307-0.98-0.542-1.445s-0.549-0.851-0.943-1.153c-0.395-0.308-0.83-0.459-1.306-0.459
		c-0.312,0-0.62,0.071-0.921,0.219c-0.301,0.145-0.545,0.34-0.731,0.586C10.086,330.93,9.912,331.523,9.912,332.275z
		 M18.395,337.755v-1.205h2.365v-2.422h1.172v2.422h2.377v1.205h-2.377v2.445H20.76v-2.445H18.395z"/>
</g>
<g>
	<circle fill="#C92E29" cx="14.5" cy="419.301" r="14.5"/>
	<polygon fill="#C92E29" points="3.104,436 3.104,436 5.637,429.01 9.49,432.196 	"/>
</g>
<g>
	<path fill="#FFFFFF" d="M14.5,428.596c-0.92,0-1.791-0.133-2.639-0.388c0.352-0.557,0.751-1.27,0.944-1.984
		c0,0,0.109-0.411,0.653-2.554c0.315,0.617,1.259,1.161,2.265,1.161c2.988,0,5.021-2.723,5.021-6.377
		c0-2.747-2.336-5.326-5.894-5.326c-4.406,0-6.633,3.172-6.633,5.811c0,1.598,0.605,3.024,1.9,3.559
		c0.205,0.085,0.399,0,0.459-0.242c0.049-0.157,0.146-0.567,0.194-0.738c0.061-0.241,0.036-0.313-0.133-0.521
		c-0.376-0.448-0.618-1.018-0.618-1.827c0-2.348,1.755-4.454,4.575-4.454c2.493,0,3.873,1.524,3.873,3.57
		c0,2.674-1.188,4.938-2.953,4.938c-0.968,0-1.694-0.8-1.465-1.792c0.279-1.174,0.823-2.444,0.823-3.292
		c0-0.762-0.411-1.402-1.258-1.402c-0.993,0-1.792,1.027-1.792,2.407c0,0,0,0.884,0.303,1.478c-1.017,4.309-1.198,5.059-1.198,5.059
		c-0.169,0.702-0.182,1.488-0.157,2.144c-3.28-1.44-5.567-4.709-5.567-8.521c0-5.132,4.163-9.295,9.295-9.295
		s9.295,4.163,9.295,9.295S19.632,428.596,14.5,428.596z"/>
</g>
<g>
	<circle fill="#36465D" cx="14.5" cy="500.301" r="14.5"/>
	<polygon fill="#36465D" points="3.104,517 3.104,517 5.637,510.01 9.49,513.196 	"/>
</g>
<g>
	<path fill="#FFFFFF" d="M15.159,491.301v4.546h4.268v2.826h-4.268v4.616c0,1.044,0.05,1.711,0.166,2.016
		c0.105,0.292,0.316,0.527,0.608,0.703c0.399,0.247,0.856,0.362,1.372,0.362c0.914,0,1.816-0.292,2.719-0.89v2.836
		c-0.773,0.362-1.465,0.62-2.086,0.762c-0.623,0.152-1.3,0.223-2.028,0.223c-0.819,0-1.546-0.105-2.179-0.315
		c-0.634-0.201-1.172-0.504-1.618-0.881c-0.446-0.386-0.762-0.796-0.926-1.23c-0.176-0.434-0.258-1.065-0.258-1.885v-6.316H8.938
		v-2.544c0.703-0.234,1.313-0.562,1.816-0.984c0.504-0.434,0.902-0.949,1.208-1.548c0.304-0.608,0.516-1.37,0.632-2.296H15.159z"/>
</g>
</svg>
